# xmcd CD database file
#
# Track frame offsets:
#	150
#	35318
#	51896
#	81806
#	109548
#	131978
#	165716
#	193612
#	222304
#	246448
#	274024
#	293467
#
# Disc length: 4279 seconds
#
# Revision: 0
# Processed by: cddbd v1.5.2PL0 Copyright (c) Steve Scherf et al.
# Submitted via: CDex 1.51
#
DISCID=ac10b50c
DTITLE=Various Artist - Hemispheres - Northern Lights
DYEAR=2000
DGENRE=New Age
TTITLE0=Heart of the Cura
TTITLE1=Mahanadi
TTITLE2=Desert Wind
TTITLE3=Shioni Misaki
TTITLE4=Beowawe
TTITLE5=Test Lapcha
TTITLE6=Granka Granka
TTITLE7=Sheelagh Na Guira
TTITLE8=Delta Seven
TTITLE9=Year of the Dragon
TTITLE10=Nev lle
TTITLE11=Texarkana Blues
EXTD=YEAR: 2000
EXTT0=
EXTT1=
EXTT2=
EXTT3=
EXTT4=
EXTT5=
EXTT6=
EXTT7=
EXTT8=
EXTT9=
EXTT10=
EXTT11=
PLAYORDER=
